<?xml version="1.0" encoding="UTF-8"?>
<!DOCTYPE svg PUBLIC "-//W3C//DTD SVG 1.1//EN" "http://www.w3.org/Graphics/SVG/1.1/DTD/svg11.dtd">
<!-- Creator: CorelDRAW 2021 (64-Bit) -->
<svg xmlns="http://www.w3.org/2000/svg" xml:space="preserve" width="39.3701in" height="19.685in" version="1.1" style="shape-rendering:geometricPrecision; text-rendering:geometricPrecision; image-rendering:optimizeQuality; fill-rule:evenodd; clip-rule:evenodd"
viewBox="0 0 39370.08 19685.04"
 xmlns:xlink="http://www.w3.org/1999/xlink"
 xmlns:xodm="http://www.corel.com/coreldraw/odm/2003">
 <defs>
  <style type="text/css">
   <![CDATA[
    .fil0 {fill:#05293E}
    .fil7 {fill:#064971}
    .fil1 {fill:#08A7EA}
    .fil8 {fill:#1B525D}
    .fil5 {fill:#28B0F0}
    .fil4 {fill:#50B20F}
    .fil3 {fill:#6FB914}
    .fil2 {fill:#D2EBF1}
    .fil6 {fill:#F3FBFB}
   ]]>
  </style>
 </defs>
 <g id="Layer_x0020_1">
  <metadata id="CorelCorpID_0Corel-Layer"/>
  <path class="fil0" d="M19788.81 7415.76c-4.98,-220.86 14.02,-1600.21 -3.54,-1737.16 -30.12,-234.85 -218.59,-426.86 -351.72,-512.89 -169.26,-109.38 -361.62,-166.54 -565.22,-196.1 -40.24,-5.84 -62.06,-3.85 -94.84,-25.19l7.25 -61.94c316.49,-17.63 593.62,96.33 814.32,267.41 133.99,103.86 193.06,219.8 278.46,381.21 28.99,-41.21 46.4,-93.32 73.37,-138.83 207.35,-349.85 603.17,-514.98 1021.44,-515.79l5.51 67.91c-28.17,17.31 -51.86,19.36 -87.69,23.99 -406.44,52.55 -835.65,252.97 -924.51,708.62 -36.42,186.73 -10.11,646.22 -9.91,861.17 0.28,291.87 -3.75,586.19 -0.06,877.68 195.02,-0.01 394.63,4.55 589,0.31 214.23,-4.66 66.64,-186.43 287.5,-298.39 291.11,-147.57 506.04,-303.35 689.09,-487.83 631.17,-636.13 929.79,-1670.56 498.07,-2608.3 -103.03,-223.8 -189.91,-362.13 -332.7,-542.31 -229.81,-289.95 -493.91,-474.67 -831.67,-648.09 -566.22,-290.72 -1343.57,-298.84 -1916.75,-13.57 -293.7,146.18 -549.04,322.25 -765.42,557.28 -25.36,27.55 -39.65,50.69 -65.64,80.48 -131.27,150.53 -247.06,344.35 -337.44,537.77 -422.55,904.23 -190.64,1921.41 464.77,2625.48 53.01,56.94 96.52,87.7 153.26,138.68 54.02,48.54 100.35,86.81 161.04,130.48 103.71,74.62 239.92,162.78 368.28,225.72 106.46,52.2 84.51,39.48 131.81,159.4 36.38,92.22 38.74,139.72 151.01,143.04 181.28,5.35 413.31,8.28 592.94,-0.23z"/>
  <path class="fil0" d="M23882.89 4374.01c-1.6,21.34 58.99,116.06 78.94,149.51 24.35,40.83 88.93,123.57 97.32,148.9 -100.94,17.24 -184.08,15.24 -262.77,-34.89 -75.77,-48.28 -119.44,-89.72 -162.56,-162.26 -76.26,-128.32 -134.29,-343.92 -135.26,-515.49 301.61,-0.49 559.77,94.16 686.07,350.06 68.74,139.28 6.99,214.48 9.85,282.17 21.34,25.37 39.35,48.74 63.59,68.48 128.01,-123.56 88.13,-440.67 -150.62,-626.82 -160.76,-125.35 -450.25,-209.85 -718.06,-187.87 -17.94,307.41 101.99,780.76 392.11,909.35 167.39,74.19 212.47,43.28 373.26,8.54 55.61,55.46 228.16,232.72 303.1,260.82l-0.23 861.02c83.83,42.7 155,93.76 207.55,149.3 41.49,-21.33 43.56,-34.99 79.89,-62.46l241.03 -228.14c119.07,55.51 219.5,90.7 368.04,34.97 126,-47.28 194.45,-113.49 258.63,-199.48 141.79,-189.95 182.66,-443.46 198.1,-729.62 -373.72,-10.74 -805.94,74.4 -949.43,426.16 -47.72,116.99 -45.73,303.91 22.48,371.4 114.79,-74.13 49.56,-95.83 56.81,-214.06 14.09,-229.75 238.78,-408.45 479.26,-438.7 2.59,-1.65 6.08,-3.34 8.16,-4.26 2.05,-0.9 5.6,-2.96 8.15,-3.98 48.33,-19.37 -13.56,2.61 16.65,-6.21 49.07,-14.33 190.58,-20.46 234.87,-14.97 -5.83,172.43 -49.65,397.42 -151.63,527.47 -73.42,93.64 -251.77,262.86 -440.67,180.63 3.26,-31.86 29.26,-49.71 63.2,-89.57l139.83 -172.44c27.64,-35.64 52.44,-54.21 71.72,-82.66 -165.23,66.68 -585.56,422.99 -745.68,572.07l-2.11 -731.23c129.22,-67.91 315.48,-264.26 375.86,-394.8 99.42,14.56 131.8,27.74 229.19,-7.78 370.78,-135.19 334.9,-553.75 152.7,-871.08l-153.61 -231.79c-25.8,-33.94 -38.03,-44.73 -61.46,-72.74l-10.26 9.98c-82.9,86.78 -287.65,396.58 -328.37,483.53 -45.85,97.91 -85.64,214.19 -76.33,338.42 11.68,156.01 78.77,201.24 132.15,281.35 -49.52,80.07 -200.92,278.79 -261.3,302.94l1.59 -1396.7c8.02,-29.75 208.49,-50.74 280.55,-220.52 333.54,105.63 670.79,-315.19 423.78,-805.85 -66.4,-131.89 -220.72,-286.69 -364.23,-354.76 -198.67,-94.22 -354.77,-124.89 -606.67,-113.16 -885.52,41.23 -1527.12,861.82 -1579.82,1681.76 -3.35,52.16 -11.35,121.66 11.77,169.25 20.1,41.37 83.39,62.44 135.87,26.56 61.07,-41.75 47.82,-210.48 62.34,-301.79 74.13,-466.15 346.68,-899.73 698.23,-1114.16 170.06,-103.72 274.17,-166.16 500.64,-217.24 1092.42,-246.39 1244.73,869.84 771.13,857.84 -6.33,-205.33 -51.94,-290.11 -139.34,-436.52 -42.38,-70.99 -209.89,-289.62 -255.9,-318.18 -107.77,72.85 -307.16,380.55 -362.98,543.69 -44.22,129.23 -41.59,263 14.8,378.41 45.02,92.14 112.79,153.47 203.3,192.06l46.42 22.18 -3.25 1261.11c-42.43,-23.83 -95.88,-83.3 -137.15,-126.6 -59.32,-62.24 -368.33,-316.5 -439.26,-361.17z"/>
  <path class="fil1" d="M23212.53 9544.07c-8.22,348.03 135.13,618.57 329.71,866.81 24.02,30.65 49.89,57.52 79.79,87.5 522.01,523.3 1409.93,535.06 1936.76,-3.17 107.21,-109.53 61.54,-52.56 160.56,-183.75 149.55,-198.14 265.33,-500.35 253.29,-767.69 -178.2,84.69 -188.66,20.43 -349.44,-36.76 -140.4,-49.94 -264.54,-54.52 -402.61,3.16 -247.54,103.41 -457.24,388.25 -636.79,135.28 -30.07,52.42 -55.91,87.8 -128.72,97.9 -165.2,22.93 -299.19,-145.29 -486.02,-228.17 -360.54,-159.94 -577.2,166.54 -756.54,28.89z"/>
  <path class="fil1" d="M18860.7 10091.67c15.41,-19.52 -3.66,-25.12 62.91,41.95 154.32,155.49 315.02,281.74 530.62,355.31 286.84,97.9 590.09,86.69 835.48,-35.02 213.82,-106.06 402.55,-292.87 494.45,-514.82 80.11,-193.46 83.26,-452.04 62.71,-665.39 -11.31,-117.46 -57.92,-104.69 -86.49,-170.14 -79.69,-76.22 -277.46,-69.96 -384.27,-31.71 -164.46,58.9 -370.04,302.34 -690.47,195.61 -198.34,-66.06 -313.75,-308.65 -682.93,-193.9 -215.66,67.03 -278.72,463.19 -255.19,663.99 11.55,98.54 66.53,294.61 113.19,354.12z"/>
  <path class="fil0" d="M24448.87 6486.08l-1 1649.34c-100.44,6.32 -240.81,-13.25 -270.57,39.68 -26.24,46.65 -9.49,107.39 24.24,128.74 45.78,28.97 493.99,16.18 619.89,16.06 98.1,-0.05 212.61,10.83 183.72,-121.2 -20.9,-95.51 -165.45,-50.04 -261.3,-62.89 -9.08,-316.07 -4.25,-776.48 -1.85,-1092.59l548.18 -3.43 27.21 49.26 121.37 -4.8c-8.62,171.24 77.63,135.49 330.59,135.72 60.13,0.02 130.39,6.9 183.33,-6 110.66,-26.96 353.99,41.11 403.77,-58.27 89.1,-177.88 -221.8,-135.56 -352.16,-133.15l-3.96 -128.03c76.27,-4.14 265.04,5.32 305.42,-8.2 74.46,-24.92 78.57,-131.87 23.65,-168.43 -54.52,-36.3 -250.72,-14.8 -328.56,-9.76 -55.85,3.61 -7.05,-14.07 -189.82,-13.52l-218.75 0.17c-131.49,-0.02 -152.6,-10.08 -153.57,128.06l-127.65 -3.16c-9.52,23.28 3.43,-3.81 -7.02,23.2l-13.84 31.79 -550.37 -0.97c11.34,-342.16 18.99,-618.55 -187.87,-795.08 -343.05,-292.75 -814.01,-281.55 -1195.67,-773.14 -372.38,-479.66 -246.83,-804.46 -410.43,-822.05 -220.9,-23.75 -33.29,423.12 6.16,528.12 86.27,229.61 276.42,473.47 400.42,589.27 353.69,330.31 633.83,362.34 942.7,536.56 209.21,118 153.61,134.28 153.76,348.69z"/>
  <path class="fil0" d="M25972.64 9543.77c12.04,267.34 -103.74,569.55 -253.29,767.69 -99.02,131.2 -53.35,74.22 -160.56,183.75 -526.83,538.22 -1414.76,526.47 -1936.76,3.17 -29.91,-29.98 -55.77,-56.85 -79.79,-87.5 -194.58,-248.24 -337.93,-518.79 -329.71,-866.81 -31.03,-304.64 140.45,-670.19 324.67,-894.28 138.82,-168.87 310.04,-311.82 516.96,-410.16 60.07,-28.55 46.57,-24.2 65.15,-90.52 12.48,-44.58 33.96,-72.17 40.41,-107.76 -39.35,-39.15 -54.13,-40.17 -117.89,-12.4 -150.99,65.75 -217.19,103.81 -353.08,199.34 -442.44,311.04 -751.59,928.74 -665.47,1501.98 110.98,738.74 741.38,1365.3 1569.13,1359.51 820.38,-5.74 1464.21,-618.33 1571.64,-1353.61 62.88,-430.37 -82.11,-873.72 -292.13,-1144.28 -204.86,-263.92 -405.13,-430.7 -725.47,-555.52 -214.26,-83.48 -110.46,76.38 -102.02,102.63 47.57,147.74 29.77,50.23 265.29,202.56 260,168.17 449.93,381.15 572.26,678.01 44.76,108.61 113.35,397.09 90.67,524.21z"/>
  <path class="fil0" d="M20633.93 8209.96l-124.34 99.04c23.4,244.45 694.34,870.8 546.33,1546.99 -60.96,278.51 -171.68,417.11 -339.83,597.44 -404.39,433.69 -1158.06,466.17 -1660.44,69.38 -96.9,-76.54 -184.14,-169.44 -254.11,-277.3 -68.74,-105.97 -130.76,-237.63 -160.14,-381.08 -75.19,-367.09 33.09,-594.19 171.26,-866.35 32.54,-64.09 66.43,-116.07 98.63,-172.17 76.15,-132.7 258.87,-405.26 294.96,-516.92l-134 -106.85c-99.24,112.39 -395.69,623.41 -461.95,749.72 -150,285.93 -248.12,634.13 -153,991.36 277.11,1040.75 1543.77,1340.81 2286.86,746.8 543.55,-434.5 670.75,-1083.81 352.62,-1718.98 -63.16,-126.09 -396.65,-713.56 -462.86,-761.1z"/>
  <path class="fil2" d="M19791.03 4267.33c21.98,182.98 -24.63,750.26 22.11,810.15 11.88,15.22 54.08,48 73.94,59.41 37.23,-82.74 64.24,-20.99 59.89,-171.52l0.32 -698.03c22.22,-16.16 457.95,-122.42 290.35,-605.5 -40.96,-118.05 -295.31,-557.04 -374.54,-601.22 -100.4,99.74 -300.95,441.11 -357.45,598.76 -66,184.17 -52.52,416.34 114.97,527.58 71.5,47.49 96.59,45.58 170.42,80.37z"/>
  <path class="fil3" d="M19595.98 6021.12c-12.11,-21.17 -33.4,-40.23 -49.72,-62.26 -23.02,-31.06 -31.57,-45.28 -56.54,-78.7 -78.57,-105.18 -331.88,-394.48 -349.05,-457.48 180.02,47.66 483.26,317.52 539.77,454.84 2.65,-180.22 21.82,-313.69 -132.98,-493.14 -186.28,-215.94 -483,-327.8 -778.85,-348.98 -32.74,336.92 -44.29,590.37 127.8,802.67 66.39,81.91 163.48,165.61 286.19,201.73 184.56,54.33 254.07,24.92 413.38,-18.69z"/>
  <path class="fil4" d="M20067.2 5845.96c37.66,-39.05 73.38,-154.16 239.83,-280.51 73.13,-55.51 235.88,-152.77 345.2,-181.97l-260.96 308.15c-41.65,50.17 -82.19,104.54 -124.45,157 -28.46,35.33 -40.89,54.33 -59.78,85.23 -18.37,30.05 -48.89,57.64 -57.23,83.46 234.7,107.11 532.09,31.93 698.28,-181.32 71.16,-91.31 124.01,-200.42 139.06,-348.85 11.86,-116.96 4.28,-344.18 -30.31,-444.66 -86.23,-10.4 -270.59,38.35 -355.66,65.98 -125.86,40.88 -193.43,89.11 -281.62,146.53 -68.25,44.44 -154.28,154.92 -191.26,237.15 -48.33,107.46 -86.56,226.66 -61.11,353.8z"/>
  <path class="fil0" d="M19626.89 8659.24c1.18,89.25 -10.71,260.96 20.77,334.19 82.46,191.86 358.19,179.05 428.35,-2.58 31.45,-81.43 15.92,-239.79 19.44,-334.89 216.85,-3.48 346.4,-129.3 297.28,-292.63 -28.38,-94.36 -131.28,-79.85 -227.54,-79.34l-593.75 -0.09c-99.23,0.02 -201.73,-20.1 -234.47,72.67 -29.81,84.48 20.27,190.62 61.02,229.98 71.69,69.24 117.69,52.81 228.91,72.69z"/>
  <path class="fil0" d="M23229.33 6900.02c11.67,32.43 7.19,76.97 6.59,120.14 -98.85,2.46 -332.02,-39.41 -363.26,48.07 -61.93,173.46 206.12,147.59 350.9,138.06 83.2,-5.48 23.34,1.28 87.7,11.93 50.65,8.38 152.34,3.17 208.09,3.26 261.45,0.44 269.11,24.07 280.21,-140.33l126.02 2.5 18.48 -44 429.54 1.23 2.2 -168.06 -429.36 0.32c-14.56,-34.36 0.46,-24.4 -20.84,-52.93l-125.13 3.37c-0.08,-166.53 -21.53,-128.19 -281.12,-128.97 -61,-0.19 -140.27,-5.54 -198.89,-0.71 -64.62,5.32 -26.94,14.43 -74.54,12.27 -153.31,-6.96 -428.06,-45.79 -372.25,131.96 32.82,104.51 256.28,33.71 355.66,61.89z"/>
  <path class="fil0" d="M19227.57 7856.52c-135.16,25.61 -167.14,204.73 -74.23,286.95 74.63,66.04 308.05,42.84 428.5,42.76 124.63,-0.09 874.82,7 932.65,-7.22 128.64,-31.62 168.03,-201.72 69.45,-289.02 -78.21,-69.26 -311.63,-38.39 -429.18,-38.07 -144.26,0.39 -846.61,-10.67 -927.19,4.6z"/>
  <path class="fil3" d="M19366.65 4821.68c2.76,-36.69 -267.07,-500.02 -299.7,-518.48 72.99,27.5 208.24,132.31 261.45,186.37 145.15,147.43 116.68,154.3 190.94,273.36 46.43,-92.79 49.07,-232.07 15.09,-335.88 -33.78,-103.23 -102.64,-174 -166.81,-237.35 -119.8,-118.26 -448.67,-250.82 -574.41,-231.63 -38.94,206.61 -70.05,484.09 48.4,652.75 62.81,89.43 55.54,90.02 143.26,140.89 156.72,90.89 185.06,87.71 381.78,69.98z"/>
  <path class="fil0" d="M25873.51 3174.09c-103.21,128.35 -252.85,309.13 -307.92,504.25 -71.85,254.59 70.94,479.4 317.76,470.74 232.72,-8.17 362.4,-215.56 304.36,-467.32 -32.94,-142.89 -241.07,-479.82 -314.2,-507.67z"/>
  <path class="fil3" d="M20217.26 4750.44c49.23,-100.41 98.88,-180.81 178.8,-262.28 68.96,-70.29 166.93,-140.7 270.93,-188.74 -57.31,97.3 -296.15,451.64 -287.48,523.35 382.24,21.39 579.35,-185.5 584.93,-524.09 1.59,-96.62 -4.98,-275.03 -31.94,-350.46 -274.8,24.58 -645.88,199.85 -731.33,469.89 -31.62,99.93 -33.21,245.74 16.09,332.33z"/>
  <path class="fil0" d="M18860.7 10091.67c48.15,104.11 173.45,266.43 237.36,315.7 125.01,96.4 186.46,150.21 353.94,208.87 319.23,111.8 643.07,89.98 922.39,-55.91 375.66,-196.22 645.76,-609.75 567.66,-1081.34 -24.14,-145.77 -87.48,-322.31 -181.68,-375.43 28.57,65.45 75.18,52.68 86.49,170.14 20.55,213.35 17.39,471.93 -62.71,665.39 -91.9,221.95 -280.63,408.77 -494.45,514.82 -245.39,121.71 -548.64,132.92 -835.48,35.02 -215.59,-73.58 -376.3,-199.83 -530.62,-355.31 -66.56,-67.07 -47.5,-61.47 -62.91,-41.95z"/>
  <path class="fil0" d="M19196.84 7524.51c-148.31,45.94 -119.1,260.19 10.39,276.17 88.8,10.96 100.85,-58.02 153.14,-75.78 30.97,-10.52 187.21,-4.52 231.89,-4.68l708.94 -0.8c135.84,-2.35 74.58,56.84 157.62,80.12 127,35.61 231.93,-149.53 113.35,-251.58 -68.98,-59.35 -332.43,-33.96 -438.24,-33.87 -153.97,0.13 -846.67,-17.6 -937.09,10.41z"/>
  <path class="fil1" d="M23882.89 4374.01c-21.88,-30.64 -58.61,-48.25 -80.06,-84.92 132.35,52.58 298.46,218.05 391.66,302.91 -2.87,-67.7 58.89,-142.89 -9.85,-282.17 -126.3,-255.89 -384.46,-350.54 -686.07,-350.06 0.97,171.57 59,387.17 135.26,515.49 43.11,72.54 86.78,113.98 162.56,162.26 78.69,50.13 161.83,52.13 262.77,34.89 -8.39,-25.33 -72.97,-108.06 -97.32,-148.9 -19.94,-33.45 -80.54,-128.17 -78.94,-149.51z"/>
  <path class="fil1" d="M25420 4994.9c-30.79,22.49 -143.63,35.37 -301.42,184.19 -81.54,76.9 -152.7,202.87 -141.7,350.59 51.79,-4.7 112.54,-77.3 200.65,-124.99l192.76 -75.78c-19.28,28.45 -44.08,47.02 -71.72,82.66l-139.83 172.44c-33.94,39.86 -59.94,57.71 -63.2,89.57 188.91,82.23 367.25,-86.99 440.67,-180.63 101.97,-130.05 145.8,-355.04 151.63,-527.47 -44.29,-5.5 -185.8,0.63 -234.87,14.97 -30.2,8.82 31.68,-13.17 -16.65,6.21 -2.55,1.02 -6.1,3.08 -8.15,3.98 -2.08,0.92 -5.57,2.61 -8.16,4.26z"/>
  <path class="fil5" d="M24936.01 4602.79l27.43 -37.59c6.61,-13.36 11.46,-28.1 18,-44.85 34.4,-88.16 85.16,-202.35 152.09,-255.26 -11.25,70.98 -14.16,148.04 -28.14,213.77 -15.01,70.59 -40.67,135.52 -54.74,202.97 131.67,-18.24 204.59,-33.52 267.74,-114.95 63.55,-81.95 96.92,-148.65 78.56,-283.24 -22.52,-165.06 -132.09,-404.77 -231.76,-505.36 -41.92,25.11 -476.26,586.35 -229.17,824.52z"/>
  <path class="fil5" d="M24467.26 3468.98c24.95,-36.19 19.45,-58.77 29.15,-101.74 17.09,-75.69 61.24,-214.68 92.33,-274.61 7.63,63.62 23.85,97.89 25.96,174.53 1.92,69.81 -4.47,137.61 -1,207.64 28.33,-3.24 71.48,-20.32 92,-32.59 83.62,-49.96 131.51,-171.32 131.5,-268.63 -0.01,-163.14 -184.09,-470.57 -276.2,-539.14 -101.35,62.61 -351.07,447.81 -265.49,668.4 30.66,79.02 87.77,150.17 171.74,166.15z"/>
  <path class="fil0" d="M24331.2 9079.83c17.08,211.63 -50.59,478.25 94.23,470.71 148.87,-7.75 56.97,-279.8 90.87,-473.22l136.16 -3.64c15.09,124.04 -55.62,470.67 85.97,476.94 148.69,6.58 82.28,-254.46 100.5,-475.69 60.26,-44.13 112.67,-58.25 102.73,-167.91l-712.5 -2.73c-3.89,103.06 41.21,128.11 102.02,175.54z"/>
  <path class="fil5" d="M25883.92 3345.82c-2.43,1.47 -5.63,1.59 -6.63,5.37l-61.51 67.28c-53.21,65.74 -123.29,197.56 -149.95,278.04 -103.57,312.68 220.52,456.19 381.95,255.85 137.22,-170.29 -59.41,-477.9 -163.86,-606.54z"/>
  <path class="fil6" d="M21123.56 4943.72l327.28 -47.53 -152.31 644.93c8.28,-7.59 7.47,-6.61 16.3,-18.69l44.05 -71.77c20.08,-35.3 31.52,-57.13 52.13,-93.16 37.15,-64.96 72.07,-126.06 111.82,-190.6l222.07 -378.14 -220.3 16.36c85.91,-103.82 320.46,-359.1 369.61,-432.03l-343.83 154.87c-100.46,42.11 -127.31,132.52 -254.86,244.65l-171.94 171.11z"/>
  <path class="fil0" d="M24191.88 8391.59c-81.26,28.86 -81.58,129.37 -27.31,167.94 47.69,33.89 783.35,21.26 814.57,12.46 70.94,-19.98 95.36,-132.09 21.88,-171.96 -42.26,-22.93 -205.97,-12.31 -262.93,-12.56 -71.38,-0.31 -516.76,-6.35 -546.21,4.11z"/>
  <path class="fil0" d="M26355.67 4319.41c-87.66,-33.32 -307.45,42.23 -361.88,89.13 -117.65,101.37 -120.43,240.58 -38.61,329.15 102.3,110.73 426.04,100.51 400.5,-418.28z"/>
  <path class="fil0" d="M24187.66 8660.55c-79.26,40.31 -63.93,146.31 -3.67,170.67 41.46,16.76 779.07,10.61 806.02,-0.22 65.46,-26.31 65.84,-140.8 0.15,-169.85 -42.74,-18.91 -203.89,-9.31 -262.5,-9.33 -80.83,-0.03 -500.5,-11.36 -540.01,8.73z"/>
  <path class="fil7" d="M23863.09 3083.63l-47.65 74.44c-38.24,68.9 -86.54,164.92 -103.36,239.82 -61.22,272.6 243.27,327.89 331.33,164.31 89.03,-165.37 -138.07,-446.7 -180.33,-478.57z"/>
  <path class="fil6" d="M24581.84 9826.5c-23.54,17.41 -26.36,22.12 -44.2,52.78 -13.57,23.32 -20.3,36.98 -32.69,60.7 -24.04,46.04 -47.85,84.05 -66.39,131.44 -41.16,105.16 3.47,248.26 112.17,251.86 68.75,2.28 87.96,-29.3 117.44,-73.43 26.14,-39.11 51.29,-94.57 42.8,-159.76 -6.35,-48.67 -99.37,-229.86 -129.11,-263.59z"/>
  <path class="fil6" d="M21020.87 6021.33c168.48,70.42 210.49,-9.58 271.45,287.8 29.75,-64.94 24.88,-154.52 74.42,-204.64 49.22,-49.8 126.85,-51.73 199.14,-83.31 -246.66,-13.45 -232.81,-210.69 -269.33,-333.31 -80.39,262.33 2.74,244.5 -275.69,333.46z"/>
  <path class="fil8" d="M24108.5 5135.77c-213.62,45.81 -149.27,338 52.5,303.83 207.4,-35.13 153.55,-348.01 -52.5,-303.83z"/>
  <path class="fil6" d="M18861.92 9651.29c172.83,19.81 74.36,-67.94 152.64,-243.02 41.09,-91.92 188.75,-170.57 77.91,-235.02 -83.26,-48.42 -176.48,111.28 -203.14,172.48 -38.52,88.44 -82.97,222.63 -27.41,305.56z"/>
  <path class="fil6" d="M18530.07 6361.08c60.37,30.46 139.68,29.66 181.54,78.53 43.16,50.38 36.33,147.94 69.96,203.76 76.89,-268.56 46.48,-189.41 213.12,-266.88 26.61,-12.37 16.17,-6.81 31.52,-19.67 -181.6,-27.06 -199.94,-90.92 -242.77,-249.29 -38.21,49.27 -25.56,132.33 -76.76,180.69 -40.18,37.96 -122.61,43.63 -176.61,72.86z"/>
  <path class="fil6" d="M19852.68 9378.61c-82.93,58.15 -212.81,415.71 -10.7,408.24 89.92,-3.32 138.78,-118.57 122.84,-193.38 -9.98,-46.85 -74.98,-189.35 -112.14,-214.86z"/>
  <path class="fil8" d="M25022.91 6057.12c-174.46,70.94 -61.48,336.24 112.65,254.96 149.41,-69.74 72.22,-330.13 -112.65,-254.96z"/>
  <path class="fil6" d="M18956.15 9953.39c-1.24,104.56 68.27,170.47 120.64,225.31 22.26,23.31 59.04,71.76 88.73,88.23 47.24,26.2 110.06,12.74 124.26,-33.85 25.26,-82.82 -70.27,-89.21 -147,-193.58 -68.13,-92.68 -65.75,-169.48 -186.64,-86.11z"/>
  <path class="fil5" d="M23580.01 9096.09c-165.23,44.3 -136.44,302.74 63.12,265.33 168.45,-31.58 110.56,-311.89 -63.12,-265.33z"/>
  <path class="fil5" d="M25989.08 4633.49l24.63 -49.07c-18.12,145.42 85.28,150.41 158.78,86.01 82.89,-72.63 70.1,-134.18 92.52,-264.01 -76.49,0.6 -149.4,15.38 -199.56,51.63 -58.11,42 -85.22,79.81 -76.37,175.44z"/>
  <path class="fil8" d="M25992.51 5092.14c-114.57,60.39 -51.45,263.18 99.79,207.54 141.61,-52.11 37.16,-279.72 -99.79,-207.54z"/>
  <path class="fil8" d="M25875.36 5587.88c-128.87,51.18 -43.09,254.22 98.01,186.22 113.15,-54.54 53.56,-246.41 -98.01,-186.22z"/>
  <path class="fil0" d="M24225.61 3773.44c-91.43,52.11 -23.97,191.89 75.77,140.7 88.81,-45.58 26.33,-198.89 -75.77,-140.7z"/>
 </g>
</svg>
